<svg width="112" height="112" viewBox="0 0 112 112" fill="none" xmlns="http://www.w3.org/2000/svg">
<g filter="url(#filter0_d_23_1982)">
<circle cx="55.5573" cy="55.5574" r="46" fill="white"/>
</g>
<path d="M55.1332 38.7581V54.2403L60.939 48.4344L66.7448 54.2403V38.7581" stroke="#EC0303" stroke-width="4.27095" stroke-linecap="round" stroke-linejoin="round"/>
<path d="M43.5215 72.6254V43.5962C43.5215 42.3131 44.0312 41.0825 44.9386 40.1751C45.8459 39.2678 47.0765 38.7581 48.3597 38.7581H72.5506C73.0639 38.7581 73.5561 38.962 73.9191 39.3249C74.282 39.6878 74.4859 40.1801 74.4859 40.6933V75.5283C74.4859 76.0416 74.282 76.5338 73.9191 76.8967C73.5561 77.2597 73.0639 77.4636 72.5506 77.4636H48.3597C47.0765 77.4636 45.8459 76.9538 44.9386 76.0465C44.0312 75.1391 43.5215 73.9085 43.5215 72.6254ZM43.5215 72.6254C43.5215 71.3422 44.0312 70.1116 44.9386 69.2043C45.8459 68.2969 47.0765 67.7872 48.3597 67.7872H74.4859" stroke="#EC0303" stroke-width="4.27095" stroke-linecap="round" stroke-linejoin="round"/>
<path d="M30.2114 44.5574V39.9014H25.5554V37.1894H30.2114V32.5574H32.9234V37.1894H37.5554V39.9014H32.9234V44.5574H30.2114Z" fill="#EC0303"/>
<defs>
<filter id="filter0_d_23_1982" x="-3.00407e-05" y="9.20296e-05" width="111.115" height="111.115" filterUnits="userSpaceOnUse" color-interpolation-filters="sRGB">
<feFlood flood-opacity="0" result="BackgroundImageFix"/>
<feColorMatrix in="SourceAlpha" type="matrix" values="0 0 0 0 0 0 0 0 0 0 0 0 0 0 0 0 0 0 127 0" result="hardAlpha"/>
<feMorphology radius="4.46602" operator="dilate" in="SourceAlpha" result="effect1_dropShadow_23_1982"/>
<feOffset/>
<feGaussianBlur stdDeviation="2.54563"/>
<feComposite in2="hardAlpha" operator="out"/>
<feColorMatrix type="matrix" values="0 0 0 0 0 0 0 0 0 0 0 0 0 0 0 0 0 0 0.25 0"/>
<feBlend mode="normal" in2="BackgroundImageFix" result="effect1_dropShadow_23_1982"/>
<feBlend mode="normal" in="SourceGraphic" in2="effect1_dropShadow_23_1982" result="shape"/>
</filter>
</defs>
</svg>
