<svg width="39" height="39" viewBox="0 0 39 39" fill="none" xmlns="http://www.w3.org/2000/svg">
<path d="M3.19727 17.5147C3.19714 16.9994 3.31199 16.4902 3.5338 16.0227C3.75562 15.5552 4.07906 15.1407 4.48156 14.808L17.1614 4.17972C17.8153 3.63928 18.6438 3.34277 19.5 3.34277C20.3561 3.34277 21.1846 3.63928 21.8385 4.17972L34.5184 14.808C34.9209 15.1407 35.2443 15.5552 35.4662 16.0227C35.688 16.4902 35.8028 16.9994 35.8027 17.5147V33.4572C35.8027 34.3968 35.421 35.2979 34.7416 35.9623C34.0622 36.6267 33.1407 37 32.1799 37H6.82009C5.85926 37 4.93778 36.6267 4.25837 35.9623C3.57896 35.2979 3.19727 34.3968 3.19727 33.4572V17.5147Z" stroke="white" stroke-width="3.41831" stroke-linecap="round" stroke-linejoin="round"/>
<path d="M24.4557 34.7582V22.4873C24.4557 22.0805 24.2941 21.6904 24.0065 21.4027C23.7188 21.1151 23.3287 20.9535 22.9219 20.9535H16.7864C16.3796 20.9535 15.9895 21.1151 15.7018 21.4027C15.4142 21.6904 15.2526 22.0805 15.2526 22.4873V34.7582" stroke="white" stroke-width="3.15536" stroke-linecap="round" stroke-linejoin="round"/>
</svg>
