<svg width="32" height="31" viewBox="0 0 32 31" fill="none" xmlns="http://www.w3.org/2000/svg">
<path d="M15.6 8.372V12.701" stroke="#101010" stroke-width="1.95" stroke-miterlimit="10" stroke-linecap="round"/>
<path d="M15.626 2.6C10.842 2.6 6.96801 6.474 6.96801 11.258V13.988C6.96801 14.872 6.60401 16.198 6.14901 16.952L4.49801 19.708C3.48401 21.411 4.18601 23.309 6.05801 23.933C12.272 26 18.993 26 25.207 23.933C26.962 23.348 27.716 21.294 26.767 19.708L25.116 16.952C24.661 16.198 24.297 14.859 24.297 13.988V11.258C24.284 6.5 20.384 2.6 15.626 2.6Z" stroke="#101010" stroke-width="1.95" stroke-miterlimit="10" stroke-linecap="round"/>
<path d="M19.929 24.466C19.929 26.845 17.979 28.795 15.6 28.795C14.417 28.795 13.325 28.301 12.545 27.521C11.765 26.741 11.271 25.649 11.271 24.466" stroke="#101010" stroke-width="1.95" stroke-miterlimit="10"/>
</svg>
